frame=  925 fps=0.0 q=-0.0 size=N/A time=00:00:30.86 bitrate=N/A speed=61.1x    frame= 1685 fps=1668 q=-0.0 size=N/A time=00:00:56.16 bitrate=N/A speed=55.6x    frame= 1977 fps=1305 q=-0.0 size=N/A time=00:01:05.90 bitrate=N/A speed=43.5x    frame= 4272 fps=2115 q=-0.0 size=N/A time=00:02:22.40 bitrate=N/A speed=70.5x    frame= 4272 fps=1692 q=-0.0 size=N/A time=00:02:22.40 bitrate=N/A speed=56.4x    frame= 5615 fps=1853 q=-0.0 size=N/A time=00:03:07.16 bitrate=N/A speed=61.8x    frame= 7943 fps=2250 q=-0.0 size=N/A time=00:04:24.76 bitrate=N/A speed=  75x    frame= 8607 fps=2131 q=-0.0 size=N/A time=00:04:46.90 bitrate=N/A speed=  71x    frame= 8607 fps=1896 q=-0.0 size=N/A time=00:04:46.90 bitrate=N/A speed=63.2x    frame=10611 fps=2104 q=-0.0 size=N/A time=00:05:53.70 bitrate=N/A speed=70.1x    frame=13680 fps=2466 q=-0.0 size=N/A time=00:07:36.00 bitrate=N/A speed=82.2x    frame=14282 fps=2361 q=-0.0 size=N/A time=00:07:56.06 bitrate=N/A speed=78.7x    frame=14735 fps=2249 q=-0.0 size=N/A time=00:08:11.16 bitrate=N/A speed=  75x    frame=17807 fps=2524 q=-0.0 size=N/A time=00:09:53.56 bitrate=N/A speed=84.1x    frame=20174 fps=2669 q=-0.0 size=N/A time=00:11:12.46 bitrate=N/A speed=  89x    frame=20174 fps=2502 q=-0.0 size=N/A time=00:11:12.46 bitrate=N/A speed=83.4x    frame=21473 fps=2506 q=-0.0 size=N/A time=00:11:55.76 bitrate=N/A speed=83.5x    frame=24548 fps=2706 q=-0.0 size=N/A time=00:13:38.30 bitrate=N/A speed=90.2x    frame=26234 fps=2740 q=-0.0 size=N/A time=00:14:34.46 bitrate=N/A speed=91.3x    frame=26234 fps=2603 q=-0.0 size=N/A time=00:14:34.46 bitrate=N/A speed=86.8x    frame=28412 fps=2684 q=-0.0 size=N/A time=00:15:47.06 bitrate=N/A speed=89.5x    frame=31260 fps=2819 q=-0.0 size=N/A time=00:17:22.00 bitrate=N/A speed=  94x    frame=31694 fps=2734 q=-0.0 size=N/A time=00:17:36.46 bitrate=N/A speed=91.1x    frame=32304 fps=2670 q=-0.0 size=N/A time=00:17:56.80 bitrate=N/A speed=  89x    frame=34694 fps=2753 q=-0.0 size=N/A time=00:19:16.46 bitrate=N/A speed=91.8x    frame=36552 fps=2788 q=-0.0 size=N/A time=00:20:18.40 bitrate=N/A speed=92.9x    frame=36567 fps=2687 q=-0.0 size=N/A time=00:20:18.90 bitrate=N/A speed=89.6x    frame=38880 fps=2755 q=-0.0 size=N/A time=00:21:36.00 bitrate=N/A speed=91.8x    frame=40956 fps=2801 q=-0.0 size=N/A time=00:22:45.20 bitrate=N/A speed=93.4x    frame=41924 fps=2772 q=-0.0 size=N/A time=00:23:17.46 bitrate=N/A speed=92.4x    [blackdetect @ 0x6000036d1dc0] black_start:1420.1 black_end:1422.133333 black_duration:2.033333
